<svg xmlns="http://www.w3.org/2000/svg" viewBox="0 0 296.75 74.13">
    <defs>
        <style>.cls-1,.cls-2{fill:blue;}.cls-2{stroke:blue;stroke-miterlimit:10;stroke-width:2px;}</style>
    </defs>
    <title>Asset 5</title>
    <g id="Layer_2" data-name="Layer 2">
        <g id="Layer_1-2" data-name="Layer 1">
            <path class="cls-1" d="M82,0V68.77H73.74V53.67q0-14.76-11.48-26.87T35.67,14.61a27.35,27.35,0,0,0-19,7,25.46,25.46,0,0,0-6,8.07,23.49,23.49,0,0,0-2,9.87A26.65,26.65,0,0,0,15.65,57.7a24.42,24.42,0,0,0,7.74,5.88,22.16,22.16,0,0,0,9.61,2l1.6-7.9h7.47l-2.4,16A51.21,51.21,0,0,1,24,71.44a35.68,35.68,0,0,1-12.37-6.87Q0,54.52,0,38.22A28.91,28.91,0,0,1,10.05,15.64,36.75,36.75,0,0,1,21.17,8.86,36.84,36.84,0,0,1,34.42,6.55,44.74,44.74,0,0,1,58.08,12.9a37.09,37.09,0,0,1,9.21,7.64,41.77,41.77,0,0,1,6.45,10.12V.22Z"/>
            <path class="cls-2" d="M140,1.53s19,2.73,25.74,8.17a28.29,28.29,0,0,1,8.38,11,37.48,37.48,0,0,1,2.71,14.76A33.41,33.41,0,0,1,175,46.63a29.1,29.1,0,0,1-5.54,9.47,30.2,30.2,0,0,1-18.63,10.37l-5-15,5.61-2.06,3.3,9.4a22,22,0,0,0,11.59-9,27.67,27.67,0,0,0,3.55-7,24,24,0,0,0,1.19-7.62,28,28,0,0,0-2.46-12,24,24,0,0,0-7.33-9Q152.7,7.71,140,7.71V68.05h6.11v5.08H128.22q-19,0-29.72-15.17a56.09,56.09,0,0,1-7.39-15.35,89.1,89.1,0,0,1-3.64-19.8L134.2,1.67ZM134.2,68.05V8.19L93.89,25.76a48.67,48.67,0,0,0,2.43,15.65,46.21,46.21,0,0,0,7.16,13.39,34.56,34.56,0,0,0,11.09,10,28.24,28.24,0,0,0,13.65,3.3Z"/>
            <path class="cls-1" d="M280.67,8.52V70.16L272,70.1V32.76q0-8-6.68-13.63a22.93,22.93,0,0,0-15-5.73,17.49,17.49,0,0,0-7.85,1.78A20.2,20.2,0,0,0,236,20.26a23.16,23.16,0,0,0-5.36,15.22,30.78,30.78,0,0,0,3.67,15.42q4.32,7.7,12.69,7.7a12.77,12.77,0,0,0,4.46-.75,10.65,10.65,0,0,0,3.81-2.54V47.42h8.45V59.73q-5.44,7.14-16.72,7.14-7.53,0-12.55-3.38a21,21,0,0,1-7.66-9.87,22,22,0,0,1-9,9.87q-5.93,3.39-14.66,3.38a22.79,22.79,0,0,1-9.36-1.78A17.93,17.93,0,0,1,187,59.73V47.42h8.27v7.89q3.19,3.48,9,3.48a14.9,14.9,0,0,0,13-6.58,23.64,23.64,0,0,0,4-14q0-12.78-5.35-19.08T200,12q-2.73-.2-5.92-.24t-6.34,0c-2.1,0-4.1.08-6,.14s-3.55.1-4.93.1V4.84q3.38,0,6.3-.09l5.78-.19c1.91-.06,3.85-.08,5.82,0s4.09.15,6.35.33a36.42,36.42,0,0,1,14.8,4.28,26,26,0,0,1,10.2,11.14,18.85,18.85,0,0,1,3.33-6,24.33,24.33,0,0,1,5.31-4.75,27.12,27.12,0,0,1,6.39-3.33A20.13,20.13,0,0,1,248,5q16,0,24.06,10.24V4.84h5A3.67,3.67,0,0,1,280.67,8.52Z"/>
            <path class="cls-1" d="M296.75,6.39V68.27a2.16,2.16,0,0,1-2.35,1.89h-2.71a2.16,2.16,0,0,1-2.34-1.89V6.39a2.16,2.16,0,0,1,2.34-1.89h2.71A2.16,2.16,0,0,1,296.75,6.39Z"/>
        </g>
    </g>
</svg>