<svg id="Layer_1" data-name="Layer 1" xmlns="http://www.w3.org/2000/svg" viewBox="0 0 226.8 90.71"><defs><style>.cls-1,.cls-2{fill:#fff;}.cls-1,.cls-3,.cls-4{stroke:#231f20;}.cls-1,.cls-3,.cls-4,.cls-5{stroke-miterlimit:10;}.cls-1{stroke-width:3px;}.cls-3,.cls-4,.cls-5{fill:none;}.cls-3,.cls-5{stroke-width:4px;}.cls-4{stroke-width:7px;}.cls-5{stroke:#fff;}.cls-6{fill:#d94426;}.cls-7{fill:#231f20;}</style></defs><title>Untitled-1</title><rect class="cls-1" x="1.5" y="15.52" width="200.59" height="53.96"/><rect class="cls-2" x="4.93" y="7.62" width="196.83" height="12.18"/><rect class="cls-2" x="196.2" y="13.71" width="12.2" height="3.59"/><line class="cls-3" x1="190.84" y1="15.52" x2="213.71" y2="15.52"/><rect class="cls-2" x="196.15" y="9.38" width="12.25" height="12.25"/><path d="M267.18,321.35,264.47,326,248.6,313l.23-.31,15.67,10.95,1.72-2.77,4-6.31a2,2,0,0,1,1.88-1c4.19,0,4.2-.07,6.39,3.5,1.1,1.79,2.15,3.61,3.23,5.41.18.3.39.59.72,1.07,2.57-1.76,5.08-3.46,7.58-5.19s4.9-3.44,7.35-5.16l.28.37-15.27,12.45-2.67-4.8c-.23.5-.34.71-.42.94-.19.52-.35,1.06-.55,1.57-.87,2.21-1.19,2.42-3.53,2.42h-4a1.33,1.33,0,0,0-.88.3h7c.28,1.8.6,3.53.82,5.27,1.44,11.18,2.92,22.36,4.27,33.56.67,5.59,1.1,11.22,1.65,16.83.17,1.8.41,3.58.59,5.37a5.65,5.65,0,0,1-1.15,3.88c-.28.4-.57.8-.87,1.19-2,2.59-3.9,5.18-5.88,7.74-.7.91-1.49,1.75-2.26,2.6a1.15,1.15,0,0,1-1.81.07,17.22,17.22,0,0,1-2.18-2.26c-2.64-3.59-5.23-7.22-7.81-10.86a1.71,1.71,0,0,1-.28-1.08c.54-6.57,1-13.15,1.69-19.7.74-7.27,1.53-14.54,2.49-21.79.88-6.59,2-13.15,3-19.73a3.54,3.54,0,0,0-.34-1.82C268.67,324.34,268,323,267.18,321.35Zm8.71-6.4a6,6,0,0,0-4.86,0Z" transform="translate(-71.36 -312.69)"/><path class="cls-4" d="M275.56,381.84a1.21,1.21,0,0,1-.36.88,1.19,1.19,0,0,1-.87.36,1.16,1.16,0,0,1-.86-.36,1.21,1.21,0,0,1-.35-.88,1.18,1.18,0,0,1,.35-.87,1.14,1.14,0,0,1,.86-.37,1.16,1.16,0,0,1,.87.37A1.19,1.19,0,0,1,275.56,381.84Z" transform="translate(-71.36 -312.69)"/><path class="cls-4" d="M279.72,379.56l-.31-.09a2.37,2.37,0,0,0-.51-.08.95.95,0,0,0-1,1,1,1,0,0,0,.3.75,1.13,1.13,0,0,0,.79.27,1.31,1.31,0,0,0,.51-.11l.27-.12c.06,0,.14.22.23.66a5.22,5.22,0,0,1,.12.8c0,.13-.21.25-.64.34a4.34,4.34,0,0,1-.81.11,2.54,2.54,0,0,1-1.89-.77,2.62,2.62,0,0,1-.74-1.92,2.66,2.66,0,0,1,.74-1.92,2.51,2.51,0,0,1,1.89-.78,2.72,2.72,0,0,1,1.36.34c.09.05.14.09.14.14a4.42,4.42,0,0,1-.16.61c-.1.35-.16.56-.19.64S279.75,379.56,279.72,379.56Z" transform="translate(-71.36 -312.69)"/><path class="cls-4" d="M285.72,380.42a2.67,2.67,0,0,1-.73,1.93,2.63,2.63,0,0,1-4.53-1.87,2.76,2.76,0,0,1,.71-2,2.5,2.5,0,0,1,1.91-.75,2.58,2.58,0,0,1,1.91.74A2.63,2.63,0,0,1,285.72,380.42Zm-1.71,0a1.14,1.14,0,0,0-.26-.73.81.81,0,0,0-.66-.31.83.83,0,0,0-.67.32,1.16,1.16,0,0,0,0,1.44.85.85,0,0,0,1.34,0A1.07,1.07,0,0,0,284,380.42Z" transform="translate(-71.36 -312.69)"/><path class="cls-4" d="M294.66,382.79c0,.12-.05.19-.15.2s-.37,0-.77,0a6.09,6.09,0,0,1-.8,0c-.1,0-.15-.11-.15-.25s0-.4,0-.72,0-.56,0-.72c0-.6,0-1,0-1.29,0-.41-.22-.62-.59-.62a.82.82,0,0,0-.49.2.66.66,0,0,0-.26.46c0,.15,0,.57,0,1.28,0,.16,0,.41,0,.74s0,.58,0,.75-.05.17-.15.17h-1.58q-.15,0-.15-.21c0-.17,0-.41,0-.74s0-.57,0-.74,0-.32,0-.58,0-.45,0-.59c0-.49-.19-.74-.56-.74a.9.9,0,0,0-.5.18.51.51,0,0,0-.29.4c0,.32,0,.79,0,1.42v1.41a.28.28,0,0,1,0,.16.35.35,0,0,1-.16,0l-.74,0-.74,0c-.09,0-.14,0-.15,0s0-.07,0-.15c0-.28,0-.7,0-1.25V380.3a17.62,17.62,0,0,0-.12-1.93.34.34,0,0,1,0-.09.11.11,0,0,1,.07-.12,1.82,1.82,0,0,1,.43-.08l.47,0,.41-.11a1.53,1.53,0,0,1,.41-.08c.06,0,.1.12.1.37s0,.36,0,.36a.42.42,0,0,0,.12-.08,5.35,5.35,0,0,1,.74-.49,2,2,0,0,1,.87-.2,1.64,1.64,0,0,1,.86.22,1.08,1.08,0,0,1,.54.67,2.27,2.27,0,0,1,.76-.63,2,2,0,0,1,.94-.26,1.86,1.86,0,0,1,1.12.32,1.19,1.19,0,0,1,.49,1c0,.18,0,.46,0,.83s0,.64,0,.83,0,.54,0,1S294.66,382.57,294.66,382.79Z" transform="translate(-71.36 -312.69)"/><path class="cls-5" d="M275.56,381.84a1.21,1.21,0,0,1-.36.88,1.19,1.19,0,0,1-.87.36,1.16,1.16,0,0,1-.86-.36,1.21,1.21,0,0,1-.35-.88,1.18,1.18,0,0,1,.35-.87,1.14,1.14,0,0,1,.86-.37,1.16,1.16,0,0,1,.87.37A1.19,1.19,0,0,1,275.56,381.84Z" transform="translate(-71.36 -312.69)"/><path class="cls-5" d="M279.72,379.56l-.31-.09a2.37,2.37,0,0,0-.51-.08.95.95,0,0,0-1,1,1,1,0,0,0,.3.75,1.13,1.13,0,0,0,.79.27,1.31,1.31,0,0,0,.51-.11l.27-.12c.06,0,.14.22.23.66a5.22,5.22,0,0,1,.12.8c0,.13-.21.25-.64.34a4.34,4.34,0,0,1-.81.11,2.54,2.54,0,0,1-1.89-.77,2.62,2.62,0,0,1-.74-1.92,2.66,2.66,0,0,1,.74-1.92,2.51,2.51,0,0,1,1.89-.78,2.72,2.72,0,0,1,1.36.34c.09.05.14.09.14.14a4.42,4.42,0,0,1-.16.61c-.1.35-.16.56-.19.64S279.75,379.56,279.72,379.56Z" transform="translate(-71.36 -312.69)"/><path class="cls-5" d="M285.72,380.42a2.67,2.67,0,0,1-.73,1.93,2.63,2.63,0,0,1-4.53-1.87,2.76,2.76,0,0,1,.71-2,2.5,2.5,0,0,1,1.91-.75,2.58,2.58,0,0,1,1.91.74A2.63,2.63,0,0,1,285.72,380.42Zm-1.71,0a1.14,1.14,0,0,0-.26-.73.81.81,0,0,0-.66-.31.83.83,0,0,0-.67.32,1.16,1.16,0,0,0,0,1.44.85.85,0,0,0,1.34,0A1.07,1.07,0,0,0,284,380.42Z" transform="translate(-71.36 -312.69)"/><path class="cls-5" d="M294.66,382.79c0,.12-.05.19-.15.2s-.37,0-.77,0a6.09,6.09,0,0,1-.8,0c-.1,0-.15-.11-.15-.25s0-.4,0-.72,0-.56,0-.72c0-.6,0-1,0-1.29,0-.41-.22-.62-.59-.62a.82.82,0,0,0-.49.2.66.66,0,0,0-.26.46c0,.15,0,.57,0,1.28,0,.16,0,.41,0,.74s0,.58,0,.75-.05.17-.15.17h-1.58q-.15,0-.15-.21c0-.17,0-.41,0-.74s0-.57,0-.74,0-.32,0-.58,0-.45,0-.59c0-.49-.19-.74-.56-.74a.9.9,0,0,0-.5.18.51.51,0,0,0-.29.4c0,.32,0,.79,0,1.42v1.41a.28.28,0,0,1,0,.16.35.35,0,0,1-.16,0l-.74,0-.74,0c-.09,0-.14,0-.15,0s0-.07,0-.15c0-.28,0-.7,0-1.25V380.3a17.62,17.62,0,0,0-.12-1.93.34.34,0,0,1,0-.09.11.11,0,0,1,.07-.12,1.82,1.82,0,0,1,.43-.08l.47,0,.41-.11a1.53,1.53,0,0,1,.41-.08c.06,0,.1.12.1.37s0,.36,0,.36a.42.42,0,0,0,.12-.08,5.35,5.35,0,0,1,.74-.49,2,2,0,0,1,.87-.2,1.64,1.64,0,0,1,.86.22,1.08,1.08,0,0,1,.54.67,2.27,2.27,0,0,1,.76-.63,2,2,0,0,1,.94-.26,1.86,1.86,0,0,1,1.12.32,1.19,1.19,0,0,1,.49,1c0,.18,0,.46,0,.83s0,.64,0,.83,0,.54,0,1S294.66,382.57,294.66,382.79Z" transform="translate(-71.36 -312.69)"/><path class="cls-6" d="M78.24,329.23v-2.6H112v2.6Zm51,3.9V378h-8.7V352.89a85.61,85.61,0,0,0-9.8-9.67q-6.51-5.1-12.5-5.09a7.21,7.21,0,0,0-6.4,3.58,13.28,13.28,0,0,0-2,7.37,15.3,15.3,0,0,0,1.3,6.56q1.69,3.69,5.1,3.69c2.47,0,3.7-1.34,3.7-4l-4.3-3.4,7.8-5.9,8.6,5.9-3.3,2.7q-1.9,7.5-13,7.5a13.71,13.71,0,0,1-10.2-3.95,14,14,0,0,1-3.9-10.25,11.09,11.09,0,0,1,5-9.4,18.13,18.13,0,0,1,10.6-3.2q9.41,0,23.3,11.3v-13.5l-5.8-3.9,9.7-7.8,10.6,7.8Z" transform="translate(-71.36 -312.69)"/><path class="cls-6" d="M160.33,328.83H135.24v-2.2h25.09Zm22.6,36.9-.8-3q6-1.61,6-10.4T177,342v35.69h-8.8v-11q-4.69-9.11-11.7-9.1a18.37,18.37,0,0,0-9.4,2.7l-8.19-3.9,5.39-8.8,23.9-11.3v-3.2a55.77,55.77,0,0,0-5.9-4.1q.71-1.5,9.8-7a68,68,0,0,1,8.7,6.8c-.87,1-2.23,2.43-4.1,4.3v4.2q19.61,2.3,19.6,15.9Q196.33,363.52,182.93,365.73Zm-14.7-23.2-17.7,7.4q6.81.09,10.9,3,3.81,2.7,6.8,9.1Zm16.3-13.7v-2.2h17v2.2Z" transform="translate(-71.36 -312.69)"/><path class="cls-6" d="M253.42,333.13V378h-8.8V348.23a125.21,125.21,0,0,0-6.8-11.1q-5.4-8.1-8.49-8.1-4,0-6.9,4.1,7.2,3.4,13.69,15.1l-6.79,6.7-6.9-6.7a7.43,7.43,0,0,0,1.7-4.3q0-2.9-5.4-8-5.5,4.5-5.5,7.6a6.83,6.83,0,0,0,2.2,4.7l-7.8,6.7-7-9a33.32,33.32,0,0,1,14.7-13.25q-1.61-3.21-7.7-3.61-1.41-.11-8.5,0v-2.6h9.6q7.5-.19,10.7,4.7a12.49,12.49,0,0,1,9.9-4.7q4.39,0,12,9.8c1,1.27,2.1,2.73,3.3,4.4v-7.5l-5.8-3.9,9.7-7.8,10.7,7.8Z" transform="translate(-71.36 -312.69)"/><path class="cls-7" d="M275.56,381.84a1.21,1.21,0,0,1-.36.88,1.19,1.19,0,0,1-.87.36,1.16,1.16,0,0,1-.86-.36,1.21,1.21,0,0,1-.35-.88,1.18,1.18,0,0,1,.35-.87,1.14,1.14,0,0,1,.86-.37,1.16,1.16,0,0,1,.87.37A1.19,1.19,0,0,1,275.56,381.84Z" transform="translate(-71.36 -312.69)"/><path class="cls-7" d="M279.72,379.56l-.31-.09a2.37,2.37,0,0,0-.51-.08.95.95,0,0,0-1,1,1,1,0,0,0,.3.75,1.13,1.13,0,0,0,.79.27,1.31,1.31,0,0,0,.51-.11l.27-.12c.06,0,.14.22.23.66a5.22,5.22,0,0,1,.12.8c0,.13-.21.25-.64.34a4.34,4.34,0,0,1-.81.11,2.54,2.54,0,0,1-1.89-.77,2.62,2.62,0,0,1-.74-1.92,2.66,2.66,0,0,1,.74-1.92,2.51,2.51,0,0,1,1.89-.78,2.72,2.72,0,0,1,1.36.34c.09.05.14.09.14.14a4.42,4.42,0,0,1-.16.61c-.1.35-.16.56-.19.64S279.75,379.56,279.72,379.56Z" transform="translate(-71.36 -312.69)"/><path class="cls-7" d="M285.72,380.42a2.67,2.67,0,0,1-.73,1.93,2.63,2.63,0,0,1-4.53-1.87,2.76,2.76,0,0,1,.71-2,2.5,2.5,0,0,1,1.91-.75,2.58,2.58,0,0,1,1.91.74A2.63,2.63,0,0,1,285.72,380.42Zm-1.71,0a1.14,1.14,0,0,0-.26-.73.81.81,0,0,0-.66-.31.83.83,0,0,0-.67.32,1.16,1.16,0,0,0,0,1.44.85.85,0,0,0,1.34,0A1.07,1.07,0,0,0,284,380.42Z" transform="translate(-71.36 -312.69)"/><path class="cls-7" d="M294.66,382.79c0,.12-.05.19-.15.2s-.37,0-.77,0a6.09,6.09,0,0,1-.8,0c-.1,0-.15-.11-.15-.25s0-.4,0-.72,0-.56,0-.72c0-.6,0-1,0-1.29,0-.41-.22-.62-.59-.62a.82.82,0,0,0-.49.2.66.66,0,0,0-.26.46c0,.15,0,.57,0,1.28,0,.16,0,.41,0,.74s0,.58,0,.75-.05.17-.15.17h-1.58q-.15,0-.15-.21c0-.17,0-.41,0-.74s0-.57,0-.74,0-.32,0-.58,0-.45,0-.59c0-.49-.19-.74-.56-.74a.9.9,0,0,0-.5.18.51.51,0,0,0-.29.4c0,.32,0,.79,0,1.42v1.41a.28.28,0,0,1,0,.16.35.35,0,0,1-.16,0l-.74,0-.74,0c-.09,0-.14,0-.15,0s0-.07,0-.15c0-.28,0-.7,0-1.25V380.3a17.62,17.62,0,0,0-.12-1.93.34.34,0,0,1,0-.09.11.11,0,0,1,.07-.12,1.82,1.82,0,0,1,.43-.08l.47,0,.41-.11a1.53,1.53,0,0,1,.41-.08c.06,0,.1.12.1.37s0,.36,0,.36a.42.42,0,0,0,.12-.08,5.35,5.35,0,0,1,.74-.49,2,2,0,0,1,.87-.2,1.64,1.64,0,0,1,.86.22,1.08,1.08,0,0,1,.54.67,2.27,2.27,0,0,1,.76-.63,2,2,0,0,1,.94-.26,1.86,1.86,0,0,1,1.12.32,1.19,1.19,0,0,1,.49,1c0,.18,0,.46,0,.83s0,.64,0,.83,0,.54,0,1S294.66,382.57,294.66,382.79Z" transform="translate(-71.36 -312.69)"/></svg>